<?xml version="1.0" encoding="utf-8"?>
<!-- Generator: Adobe Illustrator 23.0.6, SVG Export Plug-In . SVG Version: 6.00 Build 0)  -->
<svg version="1.1" id="Layer_1" xmlns="http://www.w3.org/2000/svg" xmlns:xlink="http://www.w3.org/1999/xlink" x="0px" y="0px"
	 viewBox="0 0 108.7 29.2" style="enable-background:new 0 0 108.7 29.2;" xml:space="preserve">
<style type="text/css">
	.st0{fill:#178F92;}
	.st1{fill:#FFFFFF;}
</style>
<g id="XMLID_393_">
	<path id="XMLID_992_" class="st0" d="M94.1,29.2H14.6C6.5,29.2,0,22.6,0,14.6v0C0,6.5,6.5,0,14.6,0l79.5,0
		c8.1,0,14.6,6.5,14.6,14.6v0C108.7,22.6,102.2,29.2,94.1,29.2z"/>
	<g id="XMLID_988_">
		<g>
			<g>
				<path class="st1" d="M28.6,9.6h-4.5V7.3h11.5v2.3h-4.5v11.8h-2.5V9.6z"/>
				<path class="st1" d="M38.7,7.3h10.5v2.2h-8v3.7h7.1v2.2h-7.1v3.8h8.1v2.2H38.7V7.3z"/>
				<path class="st1" d="M57.8,7.2h2.3l6.2,14.3h-2.6l-1.4-3.4h-6.7l-1.5,3.4h-2.5L57.8,7.2z M61.3,15.9l-2.4-5.7l-2.4,5.7H61.3z"/>
				<path class="st1" d="M69.2,7.3h2.6l4.3,6.7l4.3-6.7h2.6v14.2h-2.5V11.3L76.2,18h-0.1l-4.4-6.6v10.1h-2.4V7.3z"/>
			</g>
		</g>
	</g>
</g>
</svg>
