<?xml version="1.0" encoding="utf-8"?>
<!-- Generator: Adobe Illustrator 23.0.6, SVG Export Plug-In . SVG Version: 6.00 Build 0)  -->
<svg version="1.1" id="Layer_1" xmlns="http://www.w3.org/2000/svg" xmlns:xlink="http://www.w3.org/1999/xlink" x="0px" y="0px"
	 viewBox="0 0 160.1 29.2" style="enable-background:new 0 0 160.1 29.2;" xml:space="preserve">
<style type="text/css">
	.st0{fill:#FBB94E;}
	.st1{fill:#FFFFFF;}
</style>
<g id="XMLID_655_">
	<path id="XMLID_911_" class="st0" d="M145.5,29.2H14.6C6.5,29.2,0,22.7,0,14.6v0C0,6.5,6.5,0,14.6,0l130.9,0
		c8.1,0,14.6,6.5,14.6,14.6v0C160.1,22.7,153.6,29.2,145.5,29.2z"/>
	<g id="XMLID_321_">
		<g id="XMLID_393_">
			<g>
				<g>
					<path class="st1" d="M17,14.5L17,14.5c0-4,3.1-7.4,7.4-7.4c4.3,0,7.4,3.3,7.4,7.3v0c0,4-3.1,7.3-7.4,7.3S17,18.5,17,14.5z
						 M29.1,14.5L29.1,14.5c0-2.8-2-5.1-4.8-5.1s-4.8,2.2-4.8,5v0c0,2.7,2,5,4.8,5C27.2,19.5,29.1,17.2,29.1,14.5z"/>
					<path class="st1" d="M35.3,7.4h5.6c3.3,0,5.4,1.9,5.4,4.7v0c0,3.2-2.5,4.8-5.7,4.8h-2.8v4.5h-2.5V7.4z M40.6,14.7
						c1.9,0,3.1-1.1,3.1-2.5v0c0-1.7-1.2-2.5-3.1-2.5h-2.9v5.1H40.6z"/>
					<path class="st1" d="M52.7,9.7h-4.5V7.4h11.5v2.3h-4.5v11.8h-2.5V9.7z"/>
					<path class="st1" d="M63,7.4h2.5v14.2H63V7.4z"/>
					<path class="st1" d="M69.7,7.4h2.6l4.3,6.7L81,7.4h2.6v14.2h-2.5V11.4l-4.5,6.7h-0.1l-4.4-6.6v10.1h-2.4V7.4z"/>
					<path class="st1" d="M87.9,7.4h2.5v14.2h-2.5V7.4z"/>
					<path class="st1" d="M93.7,19.5l1.5-1.8c1.4,1.2,2.7,1.8,4.5,1.8c1.5,0,2.5-0.7,2.5-1.8v0c0-1-0.6-1.6-3.2-2.2
						c-3-0.7-4.7-1.6-4.7-4.2v0c0-2.4,2-4.1,4.8-4.1c2.1,0,3.7,0.6,5.1,1.8l-1.3,1.9c-1.3-1-2.5-1.5-3.8-1.5c-1.5,0-2.3,0.7-2.3,1.7
						v0c0,1.1,0.6,1.6,3.4,2.2c3,0.7,4.5,1.8,4.5,4.1v0c0,2.6-2.1,4.2-5.1,4.2C97.4,21.7,95.4,21,93.7,19.5z"/>
					<path class="st1" d="M111.3,9.7h-4.5V7.4h11.5v2.3h-4.5v11.8h-2.5V9.7z"/>
					<path class="st1" d="M121.5,7.4h2.5v14.2h-2.5V7.4z"/>
					<path class="st1" d="M127.6,14.5L127.6,14.5c0-4.1,3-7.4,7.3-7.4c2.6,0,4.2,0.9,5.5,2.2l-1.6,1.8c-1.1-1.1-2.3-1.8-4-1.8
						c-2.7,0-4.7,2.2-4.7,5v0c0,2.8,2,5,4.7,5c1.7,0,2.9-0.7,4.1-1.8l1.6,1.6c-1.5,1.5-3.1,2.5-5.7,2.5
						C130.7,21.8,127.6,18.6,127.6,14.5z"/>
				</g>
			</g>
		</g>
	</g>
</g>
</svg>
