<?xml version="1.0" encoding="utf-8"?>
<!-- Generator: Adobe Illustrator 23.0.6, SVG Export Plug-In . SVG Version: 6.00 Build 0)  -->
<svg version="1.1" id="Layer_1" xmlns="http://www.w3.org/2000/svg" xmlns:xlink="http://www.w3.org/1999/xlink" x="0px" y="0px"
	 viewBox="0 0 140 29.2" style="enable-background:new 0 0 140 29.2;" xml:space="preserve">
<style type="text/css">
	.st0{fill:#1DA3DD;}
	.st1{fill:#FFFFFF;}
</style>
<g id="XMLID_746_">
	<path id="XMLID_744_" class="st0" d="M125.4,29.2H14.6C6.5,29.2,0,22.7,0,14.6v0C0,6.5,6.5,0,14.6,0l110.8,0
		c8.1,0,14.6,6.5,14.6,14.6v0C140,22.7,133.4,29.2,125.4,29.2z"/>
	<g id="XMLID_393_">
		<g>
			<g>
				<path class="st1" d="M13.8,19.5l1.5-1.8c1.4,1.2,2.7,1.8,4.5,1.8c1.5,0,2.5-0.7,2.5-1.8v0c0-1-0.6-1.6-3.2-2.2
					c-3-0.7-4.7-1.6-4.7-4.2v0c0-2.4,2-4.1,4.8-4.1c2.1,0,3.7,0.6,5.1,1.8L23,10.8c-1.3-1-2.5-1.5-3.8-1.5c-1.5,0-2.3,0.7-2.3,1.7v0
					c0,1.1,0.6,1.6,3.4,2.2c3,0.7,4.5,1.8,4.5,4.1v0c0,2.6-2.1,4.2-5.1,4.2C17.5,21.7,15.5,21,13.8,19.5z"/>
				<path class="st1" d="M27.6,14.5L27.6,14.5c0-4,3.1-7.4,7.4-7.4c4.3,0,7.4,3.3,7.4,7.3v0c0,4-3.1,7.3-7.4,7.3
					S27.6,18.5,27.6,14.5z M39.7,14.5L39.7,14.5c0-2.8-2-5.1-4.8-5.1s-4.8,2.2-4.8,5v0c0,2.7,2,5,4.8,5
					C37.8,19.5,39.7,17.2,39.7,14.5z"/>
				<path class="st1" d="M45.9,7.4h2.5v11.9h7.4v2.3h-9.9V7.4z"/>
				<path class="st1" d="M58.2,15.5V7.4h2.5v8c0,2.6,1.4,4,3.6,4c2.2,0,3.6-1.3,3.6-3.9V7.4h2.5v8c0,4.2-2.4,6.3-6.1,6.3
					C60.6,21.8,58.2,19.6,58.2,15.5z"/>
				<path class="st1" d="M77.7,9.7h-4.5V7.4h11.5v2.3h-4.5v11.8h-2.5V9.7z"/>
				<path class="st1" d="M88,7.4h2.5v14.2H88V7.4z"/>
				<path class="st1" d="M94.1,14.5L94.1,14.5c0-4,3.1-7.4,7.4-7.4c4.3,0,7.4,3.3,7.4,7.3v0c0,4-3.1,7.3-7.4,7.3
					S94.1,18.5,94.1,14.5z M106.3,14.5L106.3,14.5c0-2.8-2-5.1-4.8-5.1s-4.8,2.2-4.8,5v0c0,2.7,2,5,4.8,5
					C104.3,19.5,106.3,17.2,106.3,14.5z"/>
				<path class="st1" d="M112.4,7.4h2.3l7.6,9.8V7.4h2.4v14.2h-2.1l-7.8-10.1v10.1h-2.4V7.4z"/>
			</g>
		</g>
	</g>
</g>
</svg>
