<?xml version="1.0" encoding="utf-8"?>
<!-- Generator: Adobe Illustrator 23.0.6, SVG Export Plug-In . SVG Version: 6.00 Build 0)  -->
<svg version="1.1" id="Layer_1" xmlns="http://www.w3.org/2000/svg" xmlns:xlink="http://www.w3.org/1999/xlink" x="0px" y="0px"
	 viewBox="0 0 217 29.2" style="enable-background:new 0 0 217 29.2;" xml:space="preserve">
<style type="text/css">
	.st0{fill:#DA5339;}
	.st1{fill:#FFFFFF;}
</style>
<g>
	<path id="XMLID_674_" class="st0" d="M202.4,29.2H14.6C6.5,29.2,0,22.7,0,14.6v0C0,6.5,6.5,0,14.6,0l187.8,0
		c8.1,0,14.6,6.5,14.6,14.6v0C217,22.7,210.5,29.2,202.4,29.2z"/>
	<g id="XMLID_321_">
		<g id="XMLID_393_">
			<g>
				<g>
					<path class="st1" d="M17.6,7.4h5.3c4.4,0,7.5,3.1,7.5,7v0c0,4-3.1,7.1-7.5,7.1h-5.3V7.4z M20.1,9.6v9.6h2.8c3,0,4.9-2,4.9-4.8
						v0c0-2.8-1.9-4.8-4.9-4.8H20.1z"/>
					<path class="st1" d="M33.9,7.4h10.5v2.2h-8v3.7h7.1v2.2h-7.1v3.8h8.1v2.2H33.9V7.4z"/>
					<path class="st1" d="M51.4,9.7h-4.5V7.4h11.5v2.3h-4.5v11.8h-2.5V9.7z"/>
					<path class="st1" d="M61.5,7.4H72v2.2h-8v3.7h7.1v2.2H64v3.8h8.1v2.2H61.5V7.4z"/>
					<path class="st1" d="M75.5,7.4h6.3c1.8,0,3.2,0.5,4.1,1.4c0.7,0.8,1.2,1.8,1.2,3.1v0c0,2.3-1.4,3.7-3.4,4.3l3.8,5.4h-3
						l-3.5-4.9H78v4.9h-2.5V7.4z M81.7,14.4c1.8,0,2.9-0.9,2.9-2.4v0c0-1.5-1.1-2.3-2.9-2.3H78v4.8H81.7z"/>
					<path class="st1" d="M90.6,7.4h2.6l4.3,6.7l4.3-6.7h2.6v14.2h-2.5V11.4l-4.5,6.7h-0.1l-4.4-6.6v10.1h-2.4V7.4z"/>
					<path class="st1" d="M108.8,7.4h2.5v14.2h-2.5V7.4z"/>
					<path class="st1" d="M115.6,7.4h2.3l7.6,9.8V7.4h2.4v14.2h-2.1L118,11.5v10.1h-2.4V7.4z"/>
					<path class="st1" d="M137,7.3h2.3l6.2,14.3h-2.6l-1.4-3.4h-6.7l-1.5,3.4h-2.5L137,7.3z M140.6,15.9l-2.4-5.7l-2.4,5.7H140.6z"
						/>
					<path class="st1" d="M150.1,9.7h-4.5V7.4h11.5v2.3h-4.5v11.8h-2.5V9.7z"/>
					<path class="st1" d="M160.4,7.4h2.5v14.2h-2.5V7.4z"/>
					<path class="st1" d="M166.5,14.5L166.5,14.5c0-4,3.1-7.4,7.4-7.4c4.3,0,7.4,3.3,7.4,7.3v0c0,4-3.1,7.3-7.4,7.3
						S166.5,18.5,166.5,14.5z M178.7,14.5L178.7,14.5c0-2.8-2-5.1-4.8-5.1s-4.8,2.2-4.8,5v0c0,2.7,2,5,4.8,5
						C176.7,19.5,178.7,17.2,178.7,14.5z"/>
					<path class="st1" d="M184.8,7.4h2.3l7.6,9.8V7.4h2.4v14.2h-2.1l-7.8-10.1v10.1h-2.4V7.4z"/>
				</g>
			</g>
		</g>
	</g>
</g>
</svg>
