<?xml version="1.0" encoding="utf-8"?>
<!-- Generator: Adobe Illustrator 23.0.6, SVG Export Plug-In . SVG Version: 6.00 Build 0)  -->
<svg version="1.1" id="Layer_1" xmlns="http://www.w3.org/2000/svg" xmlns:xlink="http://www.w3.org/1999/xlink" x="0px" y="0px"
	 viewBox="0 0 96 96.7" style="enable-background:new 0 0 96 96.7;" xml:space="preserve">
<style type="text/css">
	.st0{fill:#DA5339;}
</style>
<path id="XMLID_532_" class="st0" d="M96,48.4c0,7-1.5,13.7-4.2,19.7C84.2,85,67.3,96.8,47.6,96.8C27,96.8,9.4,83.8,2.4,65.7
	C1.4,62.9,0.5,60,0,57h25c3.5,9.1,12.3,15.6,22.6,15.6c9.9,0,18.3-5.9,22.1-14.3c1.4-3,2.1-6.4,2.1-9.9c0-3-0.6-6-1.6-8.6
	c-3.5-9.1-12.3-15.6-22.6-15.6c-9.8,0-18.3,5.9-22.1,14.3H0.3C1,35.1,2,31.7,3.4,28.6C11,11.7,27.9,0,47.6,0
	c20.6,0,38.3,12.9,45.2,31.1C94.9,36.5,96,42.3,96,48.4z"/>
</svg>
