<?xml version="1.0" encoding="utf-8"?>
<!-- Generator: Adobe Illustrator 25.0.1, SVG Export Plug-In . SVG Version: 6.00 Build 0)  -->
<svg version="1.1" id="Layer_1" xmlns="http://www.w3.org/2000/svg" xmlns:xlink="http://www.w3.org/1999/xlink" x="0px" y="0px"
	 viewBox="0 0 60.1 15.4" style="enable-background:new 0 0 60.1 15.4;" xml:space="preserve">
<style type="text/css">
	.st0{fill:#4B4B4B;}
</style>
<g>
	<path class="st0" d="M52.4,15.4H7.7C3.45,15.4,0,11.95,0,7.7S3.45,0,7.7,0h44.7c4.25,0,7.7,3.45,7.7,7.7S56.65,15.4,52.4,15.4z
		 M7.7,1C4.01,1,1,4.01,1,7.7s3.01,6.7,6.7,6.7h44.7c3.69,0,6.7-3.01,6.7-6.7S56.1,1,52.4,1H7.7z"/>
	<g>
		<path class="st0" d="M6.6,4.8h1v4.8h3v0.9h-4L6.6,4.8z"/>
		<path class="st0" d="M11.6,4.8h4.2v0.9h-3.2v1.5h2.9v0.9h-2.9v1.5h3.3v0.9h-4.3V4.8z"/>
		<path class="st0" d="M18.5,5.8h-1.8v-1h4.6v0.9h-1.8v4.8h-1L18.5,5.8z"/>
		<path class="st0" d="M22,6.7c0.5-0.1,0.7-0.3,0.7-0.8h-0.4V4.8h1.1v1c0,0.9-0.4,1.3-1.3,1.4L22,6.7z"/>
		<path class="st0" d="M24.3,9.7L24.9,9c0.5,0.5,1.1,0.7,1.8,0.7c0.6,0,1-0.3,1-0.7l0,0c0-0.4-0.2-0.6-1.3-0.9
			c-1.2-0.3-1.9-0.6-1.9-1.7l0,0c0-1,0.8-1.7,2-1.7c0.8,0,1.5,0.3,2.1,0.7l-0.5,0.8c-0.5-0.4-1-0.6-1.6-0.6s-0.9,0.3-0.9,0.7l0,0
			c0,0.4,0.3,0.6,1.4,0.9c1.2,0.3,1.8,0.7,1.8,1.7l0,0c0,1.1-0.8,1.7-2,1.7C25.8,10.6,24.9,10.3,24.3,9.7z"/>
		<path class="st0" d="M33.7,5.8h-1.8v-1h4.6v0.9h-1.8v4.8h-1V5.8z"/>
		<path class="st0" d="M38.9,4.8h0.9l2.5,5.8h-1.1l-0.6-1.4h-2.7l-0.6,1.4h-1L38.9,4.8z M40.4,8.3l-1-2.3l-1,2.3H40.4z"/>
		<path class="st0" d="M43.4,4.8h1v4.8h3v0.9h-4V4.8z"/>
		<path class="st0" d="M48.4,4.8h1v2.9l2.7-2.9h1.2l-2.4,2.5l2.5,3.3h-1.2l-2-2.6l-0.7,0.9v1.7h-1V4.8H48.4z"/>
	</g>
</g>
</svg>
