<?xml version="1.0" encoding="utf-8"?>
<!-- Generator: Adobe Illustrator 25.0.1, SVG Export Plug-In . SVG Version: 6.00 Build 0)  -->
<svg version="1.1" id="Layer_1" xmlns="http://www.w3.org/2000/svg" xmlns:xlink="http://www.w3.org/1999/xlink" x="0px" y="0px"
	 style="enable-background:new 0 0 25 25;" xml:space="preserve">
<path d="M12.5,25C5.61,25,0,19.39,0,12.5S5.61,0,12.5,0S25,5.61,25,12.5S19.39,25,12.5,25z M12.5,1
	C6.16,1,1,6.16,1,12.5C1,18.84,6.16,24,12.5,24S24,18.84,24,12.5C24,6.16,18.84,1,12.5,1z M12.5,19C8.92,19,6,16.08,6,12.5
	S8.92,6,12.5,6S19,8.92,19,12.5S16.08,19,12.5,19z M12.5,7C9.47,7,7,9.47,7,12.5S9.47,18,12.5,18s5.5-2.47,5.5-5.5S15.53,7,12.5,7z"
/>
</svg>
