<?xml version="1.0" encoding="utf-8"?>
<!-- Generator: Adobe Illustrator 23.0.6, SVG Export Plug-In . SVG Version: 6.00 Build 0)  -->
<svg version="1.1" id="Layer_1" xmlns="http://www.w3.org/2000/svg" xmlns:xlink="http://www.w3.org/1999/xlink" x="0px" y="0px"
	 viewBox="0 0 104.7 37.3" style="enable-background:new 0 0 104.7 37.3;" xml:space="preserve">
<g id="XMLID_38_">
	<path id="XMLID_281_" class="st0" d="M45.7,13.1c0,3.6-2.9,6.6-6.6,6.6s-6.6-2.9-6.6-6.6s2.9-6.6,6.6-6.6S45.7,9.5,45.7,13.1z
		 M39.1,0C31.9,0,26,5.9,26,13.1s5.9,13.1,13.1,13.1s13.1-5.9,13.1-13.1S46.4,0,39.1,0z"/>
	<g id="XMLID_267_">
		<path id="XMLID_279_" class="st1" d="M85,13.1c0-3.6,2.9-6.6,6.6-6.6s6.6,2.9,6.6,6.6h6.6C104.7,5.9,98.8,0,91.6,0
			S78.5,5.9,78.5,13.1H85z"/>
	</g>
	<path id="XMLID_235_" class="st1" d="M71.9,13.1c0,7.2,5.9,13.1,13.1,13.1c7.2,0,13.1-5.9,13.1-13.1h-6.6c0,3.6-2.9,6.6-6.6,6.6
		c-3.6,0-6.6-2.9-6.6-6.6H71.9z"/>
	<g id="XMLID_204_">
		<path id="XMLID_232_" class="st2" d="M101.4,25.5c-1.4,0-2.6-1.2-2.6-2.6c0-1.4,1.2-2.6,2.6-2.6c1.4,0,2.6,1.2,2.6,2.6
			C104,24.4,102.9,25.5,101.4,25.5z M101.4,19.7c-1.8,0-3.3,1.5-3.3,3.3s1.5,3.3,3.3,3.3c1.8,0,3.3-1.5,3.3-3.3
			S103.2,19.7,101.4,19.7z"/>
		<path id="XMLID_229_" class="st2" d="M101.5,23.2h-0.7v-1.5h0.7C102.7,21.7,102.7,23.2,101.5,23.2z M101.5,21.3h-1.2v3.4h0.5v-1
			h0.9l0.6,1h0.6l-0.7-1.2C103.2,23,103.2,21.3,101.5,21.3z"/>
	</g>
	<path id="XMLID_191_" class="st3" d="M58.8,13.1c0-3.6,2.9-6.6,6.6-6.6c3.6,0,6.6,2.9,6.6,6.6h6.6C78.5,5.9,72.6,0,65.4,0
		c-7.2,0-13.1,5.9-13.1,13.1H58.8z"/>
	<circle id="XMLID_171_" class="st3" cx="65.4" cy="22.9" r="3.3"/>
	<path id="XMLID_39_" class="st4" d="M26,13.1c0,1.9-0.4,3.7-1.1,5.4c-2,4.6-6.6,7.8-12,7.8c-5.6,0-10.4-3.5-12.2-8.4
		C0.4,17,0.1,16.3,0,15.5h6.8c0.9,2.5,3.3,4.2,6.1,4.2c2.7,0,5-1.6,6-3.9c0.4-0.8,0.6-1.7,0.6-2.7c0-0.8-0.2-1.6-0.4-2.3
		c-0.9-2.5-3.3-4.2-6.1-4.2c-2.7,0-5,1.6-6,3.9H0.1c0.2-0.9,0.5-1.8,0.9-2.7C3,3.2,7.6,0,12.9,0c5.6,0,10.4,3.5,12.2,8.4
		C25.7,9.9,26,11.5,26,13.1z"/>
	<g>
		<path class="st2" d="M0.3,32.5l1.6-1.4c0.7-0.6,0.9-0.9,0.9-1.4c0-0.5-0.4-0.8-0.9-0.8c-0.5,0-0.8,0.3-1.2,0.8l-0.4-0.3
			c0.4-0.6,0.8-0.9,1.6-0.9c0.8,0,1.4,0.5,1.4,1.2v0c0,0.6-0.3,1-1.1,1.7l-1.2,1h2.3v0.5H0.3V32.5z"/>
		<path class="st2" d="M11.7,31.8H9.4l-0.1-0.4l2.5-3h0.4v3h0.7v0.4h-0.7v1h-0.5V31.8z M11.7,31.4v-2.3l-1.8,2.3H11.7z"/>
		<path class="st2" d="M19.1,28.5h1.5c1.4,0,2.3,0.9,2.3,2.2v0c0,1.2-1,2.2-2.3,2.2h-1.5V28.5z M19.6,28.9v3.5h1
			c1.1,0,1.8-0.8,1.8-1.7v0c0-1-0.7-1.7-1.8-1.7H19.6z"/>
		<path class="st2" d="M29.1,30.7L29.1,30.7c0-1.2,0.9-2.3,2.3-2.3c1.3,0,2.2,1,2.2,2.3v0c0,1.2-0.9,2.3-2.3,2.3
			C29.9,32.9,29.1,31.9,29.1,30.7z M33,30.7L33,30.7c0-1-0.7-1.8-1.7-1.8c-1,0-1.7,0.8-1.7,1.8v0c0,1,0.7,1.8,1.7,1.8
			C32.3,32.5,33,31.7,33,30.7z"/>
		<path class="st2" d="M41,28.9h-1.5v-0.5H43v0.5h-1.5v3.9H41V28.9z"/>
		<path class="st2" d="M48.9,32.2l0.3-0.4c0.5,0.4,0.9,0.6,1.5,0.6c0.6,0,1-0.3,1-0.7v0c0-0.4-0.2-0.6-1.1-0.8
			c-1-0.2-1.5-0.5-1.5-1.3v0c0-0.7,0.6-1.2,1.4-1.2c0.6,0,1.1,0.2,1.5,0.5l-0.3,0.4c-0.4-0.3-0.8-0.5-1.3-0.5
			c-0.6,0-0.9,0.3-0.9,0.7v0c0,0.4,0.2,0.6,1.2,0.9c1,0.2,1.4,0.6,1.4,1.2v0c0,0.8-0.6,1.2-1.5,1.2C50,32.9,49.4,32.7,48.9,32.2z"/>
	</g>
	<g>
		<path class="st2" d="M0.3,36L0.3,36c0-0.7,0.5-1.3,1.3-1.3c0.5,0,0.7,0.2,1,0.4l-0.2,0.2c-0.2-0.2-0.5-0.4-0.8-0.4
			c-0.6,0-1,0.5-1,1.1v0c0,0.6,0.4,1.1,1,1.1c0.4,0,0.6-0.1,0.8-0.4l0.2,0.2c-0.3,0.3-0.6,0.5-1,0.5C0.8,37.3,0.3,36.7,0.3,36z"/>
		<path class="st2" d="M3,36L3,36c0-0.7,0.5-1.3,1.3-1.3c0.8,0,1.3,0.6,1.3,1.3v0c0,0.7-0.5,1.3-1.3,1.3C3.5,37.3,3,36.7,3,36z
			 M5.3,36L5.3,36c0-0.6-0.4-1.1-1-1.1s-1,0.5-1,1.1v0c0,0.6,0.4,1.1,1,1.1S5.3,36.6,5.3,36z"/>
		<path class="st2" d="M6.3,34.7h0.3l1.6,2.1v-2.1h0.3v2.6H8.3l-1.7-2.1v2.1H6.3V34.7z"/>
		<path class="st2" d="M9.3,34.7h0.3l1.6,2.1v-2.1h0.3v2.6h-0.2l-1.7-2.1v2.1H9.3V34.7z"/>
		<path class="st2" d="M12.3,34.7h1.9v0.3h-1.6v0.9H14v0.3h-1.4V37h1.6v0.3h-1.9V34.7z"/>
		<path class="st2" d="M14.8,36L14.8,36c0-0.7,0.5-1.3,1.3-1.3c0.5,0,0.7,0.2,1,0.4l-0.2,0.2c-0.2-0.2-0.5-0.4-0.8-0.4
			c-0.6,0-1,0.5-1,1.1v0c0,0.6,0.4,1.1,1,1.1c0.4,0,0.6-0.1,0.8-0.4l0.2,0.2c-0.3,0.3-0.6,0.5-1,0.5C15.3,37.3,14.8,36.7,14.8,36z"
			/>
		<path class="st2" d="M18.4,34.9h-0.9v-0.3h2v0.3h-0.9v2.3h-0.3V34.9z"/>
		<path class="st2" d="M20.2,34.7h0.3v2.6h-0.3V34.7z"/>
		<path class="st2" d="M21.3,34.7h0.3l1.6,2.1v-2.1h0.3v2.6h-0.2l-1.7-2.1v2.1h-0.3V34.7z"/>
		<path class="st2" d="M24.2,36L24.2,36c0-0.7,0.5-1.3,1.3-1.3c0.4,0,0.7,0.1,1,0.3l-0.2,0.2c-0.2-0.2-0.4-0.3-0.8-0.3
			c-0.6,0-1,0.5-1,1.1v0c0,0.6,0.4,1.1,1,1.1c0.3,0,0.6-0.1,0.7-0.3v-0.6h-0.8v-0.3h1.1v1c-0.2,0.2-0.6,0.4-1,0.4
			C24.7,37.3,24.2,36.7,24.2,36z"/>
		<path class="st2" d="M28.4,36L28.4,36c0-0.7,0.5-1.3,1.3-1.3c0.5,0,0.7,0.2,1,0.4l-0.2,0.2c-0.2-0.2-0.5-0.4-0.8-0.4
			c-0.6,0-1,0.5-1,1.1v0c0,0.6,0.4,1.1,1,1.1c0.4,0,0.6-0.1,0.8-0.4l0.2,0.2c-0.3,0.3-0.6,0.5-1,0.5C28.9,37.3,28.4,36.7,28.4,36z"
			/>
		<path class="st2" d="M31.3,34.7h1.1c0.3,0,0.6,0.1,0.7,0.3c0.1,0.1,0.2,0.3,0.2,0.5v0c0,0.4-0.3,0.7-0.7,0.8l0.8,1.1h-0.4l-0.8-1
			h-0.7v1h-0.3V34.7z M32.4,36c0.4,0,0.7-0.2,0.7-0.5v0c0-0.3-0.2-0.5-0.7-0.5h-0.8v1H32.4z"/>
		<path class="st2" d="M34.1,34.7h1.9v0.3h-1.6v0.9h1.4v0.3h-1.4V37h1.6v0.3h-1.9V34.7z"/>
		<path class="st2" d="M37.6,34.7h0.3l1.2,2.6h-0.3l-0.3-0.7H37l-0.3,0.7h-0.3L37.6,34.7z M38.3,36.3L37.7,35l-0.6,1.3H38.3z"/>
		<path class="st2" d="M40,34.9h-0.9v-0.3h2v0.3h-0.9v2.3H40V34.9z"/>
		<path class="st2" d="M41.8,34.7h0.3v2.6h-0.3V34.7z"/>
		<path class="st2" d="M42.7,34.7H43l0.9,2.2l0.9-2.2h0.3l-1.1,2.6h-0.3L42.7,34.7z"/>
		<path class="st2" d="M45.8,34.7h0.3v2.6h-0.3V34.7z"/>
		<path class="st2" d="M47.6,34.9h-0.9v-0.3h2v0.3h-0.9v2.3h-0.3V34.9z"/>
		<path class="st2" d="M50.2,36.2l-1.1-1.6h0.4l0.9,1.3l0.9-1.3h0.3l-1.1,1.6v1h-0.3V36.2z"/>
	</g>
</g>
</svg>
