<?xml version="1.0" encoding="utf-8"?>
<!-- Generator: Adobe Illustrator 25.1.0, SVG Export Plug-In . SVG Version: 6.00 Build 0)  -->
<svg version="1.1" id="Layer_1" xmlns="http://www.w3.org/2000/svg" xmlns:xlink="http://www.w3.org/1999/xlink" x="0px" y="0px"
	 viewBox="0 0 141 35.32" style="enable-background:new 0 0 141 35.32;" xml:space="preserve">
<g>
	<g>
		<path class="st0" d="M61.53,17.66c0,4.88-3.95,8.83-8.83,8.83s-8.83-3.95-8.83-8.83s3.95-8.83,8.83-8.83S61.53,12.78,61.53,17.66z
			 M52.7,0c-9.75,0-17.66,7.91-17.66,17.66s7.91,17.66,17.66,17.66s17.66-7.91,17.66-17.66S62.45,0,52.7,0z"/>
		<g>
			<g>
				<path class="st1" d="M114.51,17.66c0-4.88,3.95-8.83,8.83-8.83c4.88,0,8.83,3.95,8.83,8.83H141C141,7.91,133.09,0,123.34,0
					s-17.66,7.91-17.66,17.66H114.51z"/>
			</g>
			<path class="st1" d="M96.85,17.66c0,9.75,7.91,17.66,17.66,17.66s17.66-7.91,17.66-17.66h-8.83c0,4.88-3.95,8.83-8.83,8.83
				c-4.88,0-8.83-3.95-8.83-8.83H96.85z"/>
		</g>
		<g>
			<g>
				<path class="st2" d="M136.62,34.41c-1.93,0-3.5-1.57-3.5-3.5c0-1.93,1.57-3.5,3.5-3.5c1.93,0,3.5,1.57,3.5,3.5
					C140.12,32.84,138.55,34.41,136.62,34.41z M136.62,26.52c-2.42,0-4.38,1.97-4.38,4.38s1.96,4.38,4.38,4.38
					c2.42,0,4.38-1.97,4.38-4.38S139.04,26.52,136.62,26.52z"/>
				<path class="st2" d="M136.75,31.25h-0.97v-2.05h0.97C138.31,29.21,138.31,31.25,136.75,31.25z M136.67,28.63h-1.62v4.56h0.73
					v-1.34h1.23l0.77,1.34h0.77l-0.88-1.57C139.01,31,139.01,28.63,136.67,28.63z"/>
			</g>
		</g>
		<g>
			<path class="st3" d="M79.19,17.66c0-4.88,3.95-8.83,8.83-8.83c4.88,0,8.83,3.95,8.83,8.83h8.83C105.68,7.91,97.77,0,88.02,0
				S70.36,7.91,70.36,17.66H79.19z"/>
			<circle class="st3" cx="88.02" cy="30.9" r="4.38"/>
		</g>
		<path class="st4" d="M35.04,17.66c0,2.57-0.55,5.01-1.54,7.21c-2.76,6.16-8.94,10.45-16.12,10.45c-7.53,0-13.96-4.72-16.5-11.36
			C0.49,22.95,0.2,21.9,0,20.81h9.13c1.26,3.32,4.48,5.68,8.25,5.68c3.6,0,6.69-2.15,8.06-5.23c0.49-1.1,0.77-2.32,0.77-3.6
			c0-1.11-0.2-2.17-0.58-3.15c-1.27-3.32-4.48-5.68-8.25-5.68c-3.59,0-6.68,2.14-8.06,5.22H0.09c0.26-1.26,0.65-2.47,1.17-3.61
			C4.02,4.29,10.2,0,17.38,0c7.53,0,13.96,4.72,16.5,11.36C34.63,13.31,35.04,15.44,35.04,17.66z"/>
	</g>
</g>
</svg>
