<?xml version="1.0" encoding="utf-8"?>
<!-- Generator: Adobe Illustrator 25.0.1, SVG Export Plug-In . SVG Version: 6.00 Build 0)  -->
<svg version="1.1" id="Layer_1" xmlns="http://www.w3.org/2000/svg" xmlns:xlink="http://www.w3.org/1999/xlink" x="0px" y="0px"
	 viewBox="0 0 220 80.93" style="enable-background:new 0 0 220 80.93;" xml:space="preserve">
<style type="text/css">
	.st0{fill:#FCB94D;}
	.st1{fill:#00A4E4;}
	.st2{fill:#404040;}
	.st3{fill:#138E91;}
	.st4{fill:#DA523A;}
</style>
<g>
	<g>
		<path class="st0" d="M96,27.55c0,7.61-6.17,13.78-13.78,13.78s-13.78-6.17-13.78-13.78s6.17-13.78,13.78-13.78S96,19.95,96,27.55z
			 M82.23,0C67.01,0,54.67,12.34,54.67,27.55s12.34,27.55,27.55,27.55s27.55-12.34,27.55-27.55S97.45,0,82.23,0z"/>
		<g>
			<g>
				<path class="st1" d="M178.67,27.55c0-7.61,6.17-13.78,13.78-13.78s13.78,6.17,13.78,13.78H220C220,12.34,207.66,0,192.44,0
					s-27.55,12.34-27.55,27.55H178.67z"/>
			</g>
			<path class="st1" d="M151.12,27.55c0,15.22,12.34,27.55,27.55,27.55s27.55-12.34,27.55-27.55h-13.78
				c0,7.61-6.17,13.78-13.78,13.78s-13.78-6.17-13.78-13.78H151.12z"/>
		</g>
		<g>
			<g>
				<path class="st2" d="M213.16,53.69c-3.01,0-5.47-2.45-5.47-5.47c0-3.01,2.45-5.47,5.47-5.47c3.01,0,5.47,2.45,5.47,5.47
					C218.63,51.24,216.18,53.69,213.16,53.69z M213.16,41.39c-3.77,0-6.83,3.07-6.83,6.83c0,3.77,3.07,6.83,6.83,6.83
					s6.83-3.07,6.83-6.83C220,44.45,216.93,41.39,213.16,41.39z"/>
				<path class="st2" d="M213.37,48.77h-1.52v-3.19h1.52C215.8,45.58,215.8,48.77,213.37,48.77z M213.24,44.67h-2.53v7.11h1.14v-2.1
					h1.93l1.2,2.1h1.2l-1.37-2.46C216.9,48.37,216.9,44.67,213.24,44.67z"/>
			</g>
		</g>
		<g>
			<path class="st3" d="M123.56,27.55c0-7.61,6.17-13.78,13.78-13.78s13.78,6.17,13.78,13.78h13.78C164.89,12.34,152.55,0,137.34,0
				s-27.55,12.34-27.55,27.55H123.56z"/>
			<circle class="st3" cx="137.34" cy="48.22" r="6.83"/>
		</g>
		<path class="st4" d="M54.67,27.55c0,4.01-0.85,7.81-2.4,11.25c-4.3,9.61-13.95,16.31-25.16,16.31c-11.75,0-21.78-7.36-25.74-17.72
			C0.77,35.82,0.31,34.17,0,32.47h14.25c1.97,5.18,6.99,8.86,12.87,8.86c5.61,0,10.43-3.35,12.58-8.16c0.77-1.72,1.2-3.62,1.2-5.62
			c0-1.73-0.32-3.39-0.9-4.92c-1.98-5.18-6.99-8.86-12.87-8.86c-5.6,0-10.43,3.35-12.58,8.15H0.14c0.4-1.96,1.02-3.85,1.82-5.63
			C6.27,6.69,15.91,0,27.12,0C38.87,0,48.9,7.36,52.86,17.72C54.03,20.77,54.67,24.09,54.67,27.55z"/>
	</g>
	<g>
		<g>
			<path class="st2" d="M1.65,76.92v-4.56H0.63v-0.61h1.02v-2.22h0.67v2.22h2.46v0.61H2.32v4.49c0,1,0.59,1.35,1.4,1.35
				c0.34,0,0.63-0.07,1.03-0.25v0.63c-0.36,0.16-0.7,0.25-1.14,0.25C2.53,78.83,1.65,78.24,1.65,76.92z"/>
			<path class="st2" d="M12.28,68.75h0.67v4.3c0.47-0.82,1.25-1.46,2.53-1.46c1.77,0,2.8,1.2,2.8,2.87v4.26h-0.67v-4.13
				c0-1.43-0.81-2.37-2.23-2.37c-1.38,0-2.43,1.04-2.43,2.48v4.02h-0.67V68.75z"/>
			<path class="st2" d="M25.73,75.24v-0.03c0-2.02,1.43-3.63,3.33-3.63c1.97,0,3.22,1.58,3.22,3.64c0,0.12,0,0.16-0.01,0.27h-5.82
				c0.12,1.73,1.38,2.74,2.75,2.74c1.09,0,1.83-0.48,2.41-1.09l0.47,0.41c-0.71,0.76-1.55,1.31-2.9,1.31
				C27.33,78.87,25.73,77.41,25.73,75.24z M31.55,74.9c-0.1-1.41-0.91-2.7-2.52-2.7c-1.39,0-2.46,1.16-2.58,2.7H31.55z"/>
			<path class="st2" d="M40.12,76.92v-4.56H39.1v-0.61h1.02v-2.22h0.67v2.22h2.46v0.61h-2.46v4.49c0,1,0.59,1.35,1.4,1.35
				c0.34,0,0.63-0.07,1.03-0.25v0.63c-0.36,0.16-0.7,0.25-1.14,0.25C41,78.83,40.12,78.24,40.12,76.92z"/>
			<path class="st2" d="M50.15,71.75h0.76l2.12,6.11l2.12-6.14h0.54l2.12,6.14l2.12-6.11h0.73l-2.57,7.01h-0.58L55.4,72.8l-2.1,5.96
				h-0.58L50.15,71.75z"/>
			<path class="st2" d="M67.27,75.24v-0.03c0-2.02,1.43-3.63,3.33-3.63c1.97,0,3.22,1.58,3.22,3.64c0,0.12,0,0.16-0.01,0.27h-5.82
				c0.12,1.73,1.38,2.74,2.75,2.74c1.09,0,1.83-0.48,2.41-1.09l0.47,0.41c-0.71,0.76-1.55,1.31-2.9,1.31
				C68.87,78.87,67.27,77.41,67.27,75.24z M73.09,74.9c-0.1-1.41-0.91-2.7-2.52-2.7c-1.39,0-2.46,1.16-2.58,2.7H73.09z"/>
			<path class="st2" d="M81.29,71.75h0.67v1.3c0.47-0.82,1.25-1.46,2.53-1.46c1.77,0,2.8,1.2,2.8,2.87v4.26h-0.67v-4.13
				c0-1.43-0.81-2.37-2.23-2.37c-1.38,0-2.43,1.04-2.43,2.48v4.02h-0.67V71.75z"/>
			<path class="st2" d="M95.59,76.92v-4.56h-1.02v-0.61h1.02v-2.22h0.67v2.22h2.46v0.61h-2.46v4.49c0,1,0.59,1.35,1.4,1.35
				c0.34,0,0.63-0.07,1.03-0.25v0.63c-0.36,0.16-0.7,0.25-1.14,0.25C96.47,78.83,95.59,78.24,95.59,76.92z"/>
			<path class="st2" d="M111.71,71.75h0.74l-3.04,7.2c-0.62,1.46-1.33,1.98-2.34,1.98c-0.54,0-0.92-0.1-1.39-0.3l0.23-0.59
				c0.37,0.18,0.67,0.26,1.2,0.26c0.73,0,1.21-0.42,1.73-1.64l-3.37-6.92h0.78l2.91,6.22L111.71,71.75z"/>
			<path class="st2" d="M120.22,72.36h-1.02v-0.61h1.02v-0.68c0-0.79,0.22-1.42,0.62-1.81c0.36-0.36,0.85-0.55,1.47-0.55
				c0.43,0,0.73,0.05,1.04,0.16v0.63c-0.4-0.12-0.69-0.18-1.04-0.18c-0.96,0-1.42,0.57-1.42,1.76v0.67h2.45v0.61h-2.45v6.34h-0.67
				V72.36z"/>
			<path class="st2" d="M129.67,75.25v-0.03c0-1.95,1.53-3.64,3.62-3.64c2.08,0,3.59,1.66,3.59,3.62v0.03
				c0,1.95-1.53,3.64-3.62,3.64C131.19,78.87,129.67,77.21,129.67,75.25z M136.15,75.25v-0.03c0-1.68-1.27-3.01-2.89-3.01
				c-1.66,0-2.86,1.35-2.86,2.99v0.03c0,1.68,1.27,3.01,2.89,3.01C134.95,78.24,136.15,76.89,136.15,75.25z"/>
			<path class="st2" d="M144.32,76v-4.26H145v4.13c0,1.43,0.81,2.37,2.23,2.37c1.38,0,2.43-1.04,2.43-2.48v-4.02h0.67v6.96h-0.67
				v-1.3c-0.47,0.82-1.25,1.46-2.53,1.46C145.35,78.87,144.32,77.67,144.32,76z"/>
			<path class="st2" d="M158.39,71.75h0.67v1.98c0.55-1.24,1.72-2.14,3.11-2.09v0.74h-0.07c-1.62,0-3.04,1.21-3.04,3.48v2.85h-0.67
				V71.75z"/>
			<path class="st2" d="M168.6,75.25v-0.03c0-2.26,1.72-3.64,3.41-3.64c1.4,0,2.31,0.79,2.89,1.66v-4.5h0.67v9.96h-0.67v-1.55
				c-0.6,0.91-1.5,1.72-2.89,1.72C170.32,78.87,168.6,77.52,168.6,75.25z M174.94,75.24v-0.03c0-1.79-1.4-2.99-2.86-2.99
				c-1.53,0-2.75,1.1-2.75,2.97v0.03c0,1.83,1.28,3,2.75,3C173.53,78.23,174.94,77.01,174.94,75.24z"/>
			<path class="st2" d="M183.15,75.25v-0.03c0-1.95,1.53-3.64,3.62-3.64c2.08,0,3.59,1.66,3.59,3.62v0.03
				c0,1.95-1.53,3.64-3.62,3.64C184.66,78.87,183.15,77.21,183.15,75.25z M189.63,75.25v-0.03c0-1.68-1.27-3.01-2.89-3.01
				c-1.66,0-2.86,1.35-2.86,2.99v0.03c0,1.68,1.27,3.01,2.89,3.01C188.43,78.24,189.63,76.89,189.63,75.25z"/>
			<path class="st2" d="M198.31,76.92v-4.56h-1.02v-0.61h1.02v-2.22h0.67v2.22h2.46v0.61h-2.46v4.49c0,1,0.59,1.35,1.4,1.35
				c0.34,0,0.63-0.07,1.03-0.25v0.63c-0.36,0.16-0.7,0.25-1.14,0.25C199.19,78.83,198.31,78.24,198.31,76.92z"/>
			<path class="st2" d="M208.33,77.83l0.4-0.53c0.77,0.59,1.62,0.91,2.52,0.91c0.95,0,1.69-0.52,1.69-1.32v-0.03
				c0-0.82-0.88-1.12-1.86-1.39c-1.14-0.33-2.41-0.67-2.41-1.91v-0.03c0-1.12,0.95-1.92,2.31-1.92c0.84,0,1.79,0.3,2.49,0.76
				l-0.36,0.56c-0.65-0.42-1.42-0.7-2.16-0.7c-0.96,0-1.6,0.52-1.6,1.21v0.03c0,0.78,0.95,1.06,1.95,1.35
				c1.13,0.31,2.31,0.72,2.31,1.95v0.03c0,1.24-1.07,2.03-2.42,2.03C210.19,78.84,209.08,78.43,208.33,77.83z"/>
		</g>
	</g>
</g>
</svg>
