<?xml version="1.0" encoding="utf-8"?>
<!-- Generator: Adobe Illustrator 25.0.1, SVG Export Plug-In . SVG Version: 6.00 Build 0)  -->
<svg version="1.1" id="Layer_1" xmlns="http://www.w3.org/2000/svg" xmlns:xlink="http://www.w3.org/1999/xlink" x="0px" y="0px"
	 viewBox="0 0 92 91.69" style="enable-background:new 0 0 92 91.69;" xml:space="preserve">
<g>
	<g>
		<path class="st0" d="M81,68.34H11c-6.07,0-11-4.93-11-11V15.79c0-6.07,4.93-11,11-11h70c6.07,0,11,4.93,11,11v41.56
			C92,63.41,87.07,68.34,81,68.34z M11,6.79c-4.96,0-9,4.04-9,9v41.56c0,4.96,4.04,9,9,9h70c4.96,0,9-4.04,9-9V15.79
			c0-4.96-4.04-9-9-9H11z"/>
		<path class="st0" d="M48.98,6.16h-6.16V2.78C42.82,1.25,44.07,0,45.6,0h0.6c1.53,0,2.78,1.25,2.78,2.78
			C48.98,2.78,48.98,6.16,48.98,6.16z M43.57,5.41h4.66V2.78c0-1.12-0.91-2.03-2.03-2.03h-0.6c-1.12,0-2.03,0.91-2.03,2.03V5.41z"/>
		<polygon class="st0" points="82.54,59.1 9.69,59.1 9.69,14.08 17.42,14.08 17.42,14.83 10.44,14.83 10.44,58.35 81.79,58.35 
			81.79,14.83 22.26,14.83 22.26,14.08 82.54,14.08 		"/>
		<rect x="53.93" y="42.32" class="st0" width="28.24" height="0.75"/>
		<rect x="65.74" y="42.69" class="st0" width="0.75" height="16.03"/>
		<rect x="53.93" y="46.28" class="st0" width="12.18" height="0.75"/>
		<path class="st0" d="M54.3,58.73h-0.75V14.08h0.38c23.49,0,28.55,23.43,28.6,23.67L81.8,37.9c-0.05-0.23-4.94-22.82-27.49-23.07
			L54.3,58.73L54.3,58.73z"/>
		<path class="st0" d="M10.43,49.84L9.7,49.66c0.08-0.36,8.93-35.58,41.83-35.58v0.75C19.22,14.83,10.51,49.49,10.43,49.84z"/>
		
			<rect x="19.81" y="75.87" transform="matrix(0.2069 -0.9784 0.9784 0.2069 -51.6662 88.7633)" class="st0" width="18.2" height="0.75"/>
		
			<rect x="25.41" y="75.87" transform="matrix(0.2358 -0.9718 0.9718 0.2358 -47.6807 91.8648)" class="st0" width="18.32" height="0.75"/>
		<rect x="43.28" y="67.34" class="st0" width="0.75" height="17.8"/>
		<rect x="48.36" y="67.34" class="st0" width="0.75" height="17.8"/>
		
			<rect x="57.54" y="67.09" transform="matrix(0.9723 -0.2339 0.2339 0.9723 -16.1912 15.6574)" class="st0" width="0.75" height="18"/>
		
			<rect x="63.14" y="67.08" transform="matrix(0.971 -0.2392 0.2392 0.971 -16.3565 17.4001)" class="st0" width="0.75" height="18.02"/>
		<path class="st0" d="M67.28,91.69H25.03c-2.08,0-3.77-1.69-3.77-3.77s1.69-3.77,3.77-3.77h28.01v2H25.03
			c-0.98,0-1.77,0.79-1.77,1.77s0.79,1.77,1.77,1.77h42.25c0.98,0,1.77-0.79,1.77-1.77s-0.79-1.77-1.77-1.77h-9.93v-2h9.93
			c2.08,0,3.77,1.69,3.77,3.77C71.05,90,69.36,91.69,67.28,91.69z"/>
		<path class="st0" d="M66.11,59.73c-9.37,0-12.63-12.3-12.76-12.82l1.94-0.5c0.03,0.11,3.01,11.32,10.82,11.32
			c9.42,0,15.05-6.03,15.05-16.12c0-10.55-8.66-26.15-27.24-26.15c-22.44,0-36.87,12.34-42.9,36.66l-1.94-0.48
			c6.27-25.34,21.36-38.18,44.84-38.18c18.06,0,29.24,14.61,29.24,28.15C83.16,52.95,76.79,59.73,66.11,59.73z"/>
	</g>
</g>
</svg>
