<?xml version="1.0" encoding="utf-8"?>
<!-- Generator: Adobe Illustrator 25.0.1, SVG Export Plug-In . SVG Version: 6.00 Build 0)  -->
<svg version="1.1" id="Layer_1" xmlns="http://www.w3.org/2000/svg" xmlns:xlink="http://www.w3.org/1999/xlink" x="0px" y="0px"
	 viewBox="0 0 93.12 93.71" style="enable-background:new 0 0 93.12 93.71;" xml:space="preserve">
<g>
	<path class="st0" d="M39.62,29.44H13.5c-0.92,0-1.66-0.75-1.66-1.66v-0.15c0-0.92,0.75-1.66,1.66-1.66h26.12
		c0.92,0,1.66,0.75,1.66,1.66v0.15C41.28,28.69,40.54,29.44,39.62,29.44z M13.5,26.71c-0.5,0-0.91,0.41-0.91,0.91v0.15
		c0,0.5,0.41,0.91,0.91,0.91h26.12c0.5,0,0.91-0.41,0.91-0.91v-0.15c0-0.5-0.41-0.91-0.91-0.91H13.5z"/>
	<path class="st0" d="M39.62,38.91H13.5c-0.92,0-1.66-0.75-1.66-1.66V37.1c0-0.92,0.75-1.66,1.66-1.66h26.12
		c0.92,0,1.66,0.75,1.66,1.66v0.15C41.28,38.16,40.54,38.91,39.62,38.91z M13.5,36.18c-0.5,0-0.91,0.41-0.91,0.91v0.15
		c0,0.5,0.41,0.91,0.91,0.91h26.12c0.5,0,0.91-0.41,0.91-0.91v-0.15c0-0.5-0.41-0.91-0.91-0.91H13.5z"/>
	<path class="st0" d="M77.24,62.54H59.05c-0.92,0-1.66-0.75-1.66-1.66v-0.15c0-0.92,0.75-1.66,1.66-1.66h18.19
		c0.92,0,1.66,0.75,1.66,1.66v0.15C78.91,61.79,78.16,62.54,77.24,62.54z M59.05,59.81c-0.5,0-0.91,0.41-0.91,0.91v0.15
		c0,0.5,0.41,0.91,0.91,0.91h18.19c0.5,0,0.91-0.41,0.91-0.91v-0.15c0-0.5-0.41-0.91-0.91-0.91H59.05z"/>
	<path class="st0" d="M77.24,71.64H59.05c-0.92,0-1.66-0.75-1.66-1.66v-0.15c0-0.92,0.75-1.66,1.66-1.66h18.19
		c0.92,0,1.66,0.75,1.66,1.66v0.15C78.91,70.89,78.16,71.64,77.24,71.64z M59.05,68.91c-0.5,0-0.91,0.41-0.91,0.91v0.15
		c0,0.5,0.41,0.91,0.91,0.91h18.19c0.5,0,0.91-0.41,0.91-0.91v-0.15c0-0.5-0.41-0.91-0.91-0.91H59.05z"/>
	<path class="st0" d="M62.51,29.28c-1.72,0-4.16-0.71-5.83-4.18c-0.78-1.62-0.85-3.14-0.22-4.51c1.28-2.75,4.9-3.77,5.31-3.88
		l0.36-0.09c2.3-0.57,7.67-1.91,11.79-9.69l0.75-1.41l9.23,22.41l-1.81-0.92c-0.05-0.03-5.33-2.68-9.66-1.27
		c-3.18,1.04-5.21,1.99-6.56,2.61c-0.63,0.29-1.09,0.51-1.46,0.63C64.13,29.08,63.42,29.28,62.51,29.28z M74.49,8.99
		c-4.34,7.18-9.84,8.55-11.99,9.08l-0.34,0.09c-1.23,0.32-3.53,1.33-4.33,3.05c-0.45,0.96-0.38,2.02,0.21,3.23
		c1.96,4.06,5.02,3.41,5.91,3.11c0.28-0.09,0.73-0.3,1.3-0.57c1.38-0.64,3.46-1.61,6.73-2.68c3.33-1.09,6.99-0.14,9.08,0.62
		L74.49,8.99z"/>
	
		<rect x="64.79" y="16.61" transform="matrix(0.9249 -0.3802 0.3802 0.9249 -3.4006 26.563)" class="st0" width="1.5" height="10.55"/>
	<rect x="65.42" y="27.7" transform="matrix(0.847 -0.5316 0.5316 0.847 -6.5794 39.9851)" class="st0" width="1.5" height="7.45"/>
	<path class="st0" d="M49.39,44.29l1.9-9.14c-1.06-1.08-7.2-7.79-5.45-17.31C47.68,7.8,57.25,0.48,69.1,0.02
		c11.8-0.46,19.74,8.22,21.61,11.3c1.77,2.92,6.18,15.69-4.57,24.77c-9.77,8.26-23.69,5.66-24.93,5.41L49.39,44.29z M69.98,0.76
		c-0.28,0-0.57,0.01-0.85,0.02c-11.5,0.44-20.77,7.51-22.55,17.2c-1.83,9.95,5.3,16.71,5.37,16.78l0.16,0.14l-1.74,8.4l10.84-2.56
		l0.08,0.02c0.14,0.03,14.48,3.12,24.37-5.23c10.34-8.74,6.11-21.01,4.41-23.81C88.31,8.81,80.93,0.76,69.98,0.76z"/>
	<path class="st0" d="M80.28,93.71H11.91c-3.02,0-8.18-1.54-10.2-4.98c-1.98-3.36-1.71-6.19-1.69-6.31l0.07-0.67H4.2V18.58
		c0-6.32,3.86-6.32,6.68-6.32h36.93v1.5H10.88c-2.89,0-5.18,0-5.18,4.82v64.67H1.51c0.05,0.93,0.31,2.72,1.49,4.72
		c1.63,2.77,6.22,4.24,8.91,4.24h68.37c6.09,0,8.1-6.11,8.64-8.4h-4.2V36.39h1.5v45.92h4.48l-0.12,0.85
		C90.57,83.27,89.03,93.71,80.28,93.71z"/>
	
		<rect x="44.84" y="42.52" transform="matrix(6.954720e-03 -1 1 6.954720e-03 -37.8796 127.4234)" class="st0" width="0.75" height="80.53"/>
	<path class="st0" d="M49.44,51.27v23.19H13.46V51.32L30.48,68.7l0.89,0.91l0.89-0.91L49.44,51.27 M12.21,48.19l-0.03,0.03
		l0.03,0.03V48.19L12.21,48.19z M50.69,48.22l-19.32,19.6L12.21,48.25v27.46h38.48V48.22L50.69,48.22z"/>
	<rect x="12.18" y="48.14" class="st0" width="38.51" height="1"/>
	
		<rect x="43.09" y="59.18" transform="matrix(0.7276 -0.686 0.686 0.7276 -34.9871 48.6121)" class="st0" width="1.25" height="18.36"/>
	
		<rect x="10.01" y="67.73" transform="matrix(0.6825 -0.7309 0.7309 0.6825 -43.8863 35.6876)" class="st0" width="18.25" height="1.25"/>
</g>
</svg>
