<?xml version="1.0" encoding="utf-8"?>
<!-- Generator: Adobe Illustrator 23.0.6, SVG Export Plug-In . SVG Version: 6.00 Build 0)  -->
<svg version="1.1" id="Layer_1" xmlns="http://www.w3.org/2000/svg" xmlns:xlink="http://www.w3.org/1999/xlink" x="0px" y="0px"
	 viewBox="0 0 69 69" style="enable-background:new 0 0 69 69;" xml:space="preserve">
<style type="text/css">
	.st0{fill:#178F92;}
	.st1{fill:#FBB94E;}
	.st2{fill:#1DA3DD;}
	.st3{fill:#4C4C4C;}
	.st4{fill:#DA5339;}
</style>
<g id="XMLID_38_">
	<g id="XMLID_68_">
		<path id="XMLID_70_" class="st0" d="M8.6,51.8c0-4.8,3.9-8.6,8.6-8.6s8.6,3.9,8.6,8.6h8.6c0-9.5-7.7-17.3-17.3-17.3S0,42.2,0,51.8
			H8.6z"/>
		<path id="XMLID_69_" class="st0" d="M17.3,69L17.3,69c-2.4,0-4.3-1.9-4.3-4.3v0c0-2.4,1.9-4.3,4.3-4.3h0c2.4,0,4.3,1.9,4.3,4.3v0
			C21.5,67.1,19.6,69,17.3,69z"/>
	</g>
	<path id="XMLID_65_" class="st1" d="M60.4,17.2c0,4.8-3.9,8.6-8.6,8.6s-8.6-3.9-8.6-8.6s3.9-8.6,8.6-8.6S60.4,12.5,60.4,17.2z
		 M51.7,0c-9.5,0-17.3,7.7-17.3,17.3s7.7,17.3,17.3,17.3S69,26.8,69,17.2S61.3,0,51.7,0z"/>
	<g id="XMLID_58_">
		<g id="XMLID_62_">
			<path id="XMLID_63_" class="st2" d="M43.1,51.8c0-4.8,3.9-8.6,8.6-8.6s8.6,3.9,8.6,8.6H69c0-9.5-7.7-17.3-17.3-17.3
				s-17.3,7.7-17.3,17.3H43.1z"/>
		</g>
		<g id="XMLID_59_">
			<path id="XMLID_60_" class="st2" d="M25.9,51.8c0,9.5,7.7,17.3,17.3,17.3s17.3-7.7,17.3-17.3h-8.6c0,4.8-3.9,8.6-8.6,8.6
				s-8.6-3.9-8.6-8.6H25.9z"/>
		</g>
	</g>
	<g id="XMLID_40_">
		<g id="XMLID_41_">
			<path id="XMLID_50_" class="st3" d="M64.7,68.1c-1.9,0-3.4-1.5-3.4-3.4c0-1.9,1.5-3.4,3.4-3.4c1.9,0,3.4,1.5,3.4,3.4
				C68.1,66.6,66.6,68.1,64.7,68.1z M64.7,60.4c-2.4,0-4.3,1.9-4.3,4.3c0,2.4,1.9,4.3,4.3,4.3s4.3-1.9,4.3-4.3
				C69,62.4,67.1,60.4,64.7,60.4z"/>
			<path id="XMLID_42_" class="st3" d="M64.9,65.1h-1v-2h1C66.4,63.1,66.4,65.1,64.9,65.1z M64.8,62.5h-1.6v4.4h0.7v-1.3h1.2
				l0.8,1.3h0.8l-0.9-1.5C67.1,64.8,67.1,62.5,64.8,62.5z"/>
		</g>
	</g>
	<path id="XMLID_39_" class="st4" d="M34.5,17.2c0,2.5-0.5,4.9-1.5,7c-2.7,6-8.7,10.2-15.7,10.2c-7.4,0-13.6-4.6-16.1-11.1
		c-0.4-1-0.7-2-0.9-3.1h8.9c1.2,3.2,4.4,5.5,8.1,5.5c3.5,0,6.5-2.1,7.9-5.1c0.5-1.1,0.8-2.3,0.8-3.5c0-1.1-0.2-2.1-0.6-3.1
		c-1.2-3.2-4.4-5.5-8.1-5.5c-3.5,0-6.5,2.1-7.9,5.1h-9c0.3-1.2,0.6-2.4,1.1-3.5C4.2,4.2,10.2,0,17.3,0c7.4,0,13.6,4.6,16.1,11.1
		C34.1,13,34.5,15.1,34.5,17.2z"/>
</g>
</svg>
