<?xml version="1.0" encoding="utf-8"?>
<!-- Generator: Adobe Illustrator 23.0.6, SVG Export Plug-In . SVG Version: 6.00 Build 0)  -->
<svg version="1.1" id="Layer_1" xmlns="http://www.w3.org/2000/svg" xmlns:xlink="http://www.w3.org/1999/xlink" x="0px" y="0px"
	 viewBox="0 0 25 25" style="enable-background:new 0 0 25 25;" xml:space="preserve">
<g id="XMLID_129_">
	<path id="XMLID_56_" class="st0" d="M-654.5,395c-6.9,0-12.5-5.6-12.5-12.5s5.6-12.5,12.5-12.5s12.5,5.6,12.5,12.5
		S-647.6,395-654.5,395z M-654.5,371c-6.3,0-11.5,5.2-11.5,11.5s5.2,11.5,11.5,11.5s11.5-5.2,11.5-11.5S-648.1,371-654.5,371z"/>
</g>
<path id="XMLID_1_" class="st1" d="M-651.7,377c0,0.6,0,1.2,0,1.8h-0.1c-0.3,0-0.6,0-0.9,0c-0.1,0-0.3,0-0.4,0
	c-0.4,0.1-0.6,0.3-0.6,0.6c0,0.1,0,0.2,0,0.3c0,0.4,0,0.8,0,1.1v0.1c0.1,0,0.2,0,0.3,0s0.2,0,0.3,0c0.1,0,0.2,0,0.3,0s0.2,0,0.3,0
	c0.1,0,0.2,0,0.3,0s0.2,0,0.3,0c-0.1,0.7-0.2,1.3-0.3,2c-0.6,0-1.1,0-1.7,0c0,1.7,0,3.4,0,5.1c-0.7,0-1.4,0-2,0c0-0.3,0-0.6,0-0.8
	c0-0.3,0-0.6,0-0.8c0-0.3,0-0.6,0-0.8c0-0.3,0-0.6,0-0.8c0-0.3,0-0.6,0-0.8c0-0.3,0-0.6,0-0.9c-0.6,0-1.1,0-1.7,0c0-0.7,0-1.3,0-2
	c0.6,0,1.1,0,1.7,0V381c0-0.5,0-0.9,0-1.4c0-0.3,0-0.7,0.2-1c0.3-0.8,0.8-1.2,1.6-1.4c0.2-0.1,0.5-0.1,0.7-0.1
	C-653.3,377-652,377-651.7,377z"/>
<path class="st1" d="M12.5,25C5.6,25,0,19.4,0,12.5S5.6,0,12.5,0S25,5.6,25,12.5S19.4,25,12.5,25z M12.5,1C6.2,1,1,6.2,1,12.5
	S6.2,24,12.5,24S24,18.8,24,12.5C24,6.2,18.9,1,12.5,1z"/>
<g id="XMLID_82_">
	<g id="XMLID_83_">
		<g id="XMLID_90_">
			<g id="XMLID_95_">
				<path id="XMLID_99_" class="st1" d="M11.9,9.5c0.2,0.3,0.3,0.7,0.3,1.1s-0.1,0.8-0.3,1.1c-0.1,0.2-0.3,0.3-0.6,0.4
					c0.4,0.1,0.6,0.4,0.8,0.6c0.2,0.3,0.3,0.7,0.3,1.1s-0.1,0.8-0.3,1.2c-0.1,0.2-0.3,0.4-0.5,0.6s-0.5,0.3-0.8,0.4s-0.7,0.1-1,0.1
					H6.5V8.8H10C10.9,8.8,11.5,9,11.9,9.5z M8,10v1.6h1.8c0.3,0,0.6-0.1,0.8-0.2s0.3-0.3,0.3-0.6c0-0.3-0.1-0.6-0.4-0.7
					C10.3,10,10,10,9.6,10L8,10L8,10z M8,12.8v1.9h1.8c0.3,0,0.6,0,0.7-0.1c0.3-0.2,0.5-0.5,0.5-0.9s-0.2-0.6-0.5-0.8
					c-0.2-0.1-0.4-0.1-0.7-0.1H8z"/>
				<path id="XMLID_96_" class="st1" d="M17.1,10.8c0.4,0.2,0.7,0.4,0.9,0.8c0.2,0.3,0.4,0.7,0.4,1.1c0,0.2,0.1,0.6,0,1.1h-3.9
					c0,0.5,0.2,0.9,0.6,1.1c0.2,0.1,0.5,0.2,0.8,0.2c0.3,0,0.6-0.1,0.8-0.2c0.1-0.1,0.2-0.2,0.3-0.4h1.4c0,0.3-0.2,0.6-0.5,1
					c-0.5,0.5-1.1,0.8-2,0.8c-0.7,0-1.3-0.2-1.9-0.7c-0.5-0.4-0.8-1.2-0.8-2.2c0-0.9,0.2-1.7,0.7-2.2s1.1-0.8,1.9-0.8
					C16.3,10.5,16.7,10.6,17.1,10.8z M15,12c-0.2,0.2-0.3,0.5-0.4,0.8H17c0-0.4-0.2-0.7-0.4-0.9c-0.2-0.2-0.5-0.3-0.8-0.3
					C15.5,11.7,15.2,11.8,15,12z"/>
			</g>
			<rect id="XMLID_94_" x="14" y="9.5" class="st1" width="3.8" height="0.8"/>
		</g>
	</g>
</g>
</svg>
