<?xml version="1.0" encoding="utf-8"?>
<!-- Generator: Adobe Illustrator 23.0.6, SVG Export Plug-In . SVG Version: 6.00 Build 0)  -->
<svg version="1.1" id="Layer_1" xmlns="http://www.w3.org/2000/svg" xmlns:xlink="http://www.w3.org/1999/xlink" x="0px" y="0px"
	 viewBox="0 0 25 25" style="enable-background:new 0 0 25 25;" xml:space="preserve">
<g id="XMLID_129_">
	<path id="XMLID_56_" class="st0" d="M12.5,25C5.6,25,0,19.4,0,12.5S5.6,0,12.5,0S25,5.6,25,12.5S19.4,25,12.5,25z M12.5,1
		C6.2,1,1,6.2,1,12.5S6.2,24,12.5,24S24,18.8,24,12.5C24,6.2,18.9,1,12.5,1z"/>
</g>
<path id="XMLID_1_" class="st1" d="M15.3,7.1c0,0.6,0,1.2,0,1.8h-0.1c-0.3,0-0.6,0-0.9,0c-0.1,0-0.3,0-0.4,0
	c-0.4,0.1-0.6,0.3-0.6,0.6c0,0.1,0,0.2,0,0.3c0,0.4,0,0.8,0,1.1V11c0.1,0,0.2,0,0.3,0s0.2,0,0.3,0s0.2,0,0.3,0s0.2,0,0.3,0
	s0.2,0,0.3,0s0.2,0,0.3,0c-0.1,0.7-0.2,1.3-0.3,2c-0.6,0-1.1,0-1.7,0c0,1.7,0,3.4,0,5.1c-0.7,0-1.4,0-2,0c0-0.3,0-0.6,0-0.8
	c0-0.3,0-0.6,0-0.8c0-0.3,0-0.6,0-0.8c0-0.3,0-0.6,0-0.8c0-0.3,0-0.6,0-0.8c0-0.3,0-0.6,0-0.9c-0.6,0-1.1,0-1.7,0c0-0.7,0-1.3,0-2
	c0.6,0,1.1,0,1.7,0v-0.1c0-0.5,0-0.9,0-1.4c0-0.3,0-0.7,0.2-1c0.3-0.8,0.8-1.2,1.6-1.4c0.2-0.1,0.5-0.1,0.7-0.1
	C13.7,7.1,15,7.1,15.3,7.1z"/>
</svg>
