<?xml version="1.0" encoding="utf-8"?>
<!-- Generator: Adobe Illustrator 19.0.0, SVG Export Plug-In . SVG Version: 6.00 Build 0)  -->
<svg version="1.1" id="Layer_1" xmlns="http://www.w3.org/2000/svg" xmlns:xlink="http://www.w3.org/1999/xlink" x="0px" y="0px"
	 viewBox="-650 375 65 20" style="enable-background:new -650 375 65 20;" xml:space="preserve">
<style type="text/css">
	.st0{fill:#DA523A;}
	.st1{fill:#FFFFFF;}
</style>
<g id="XMLID_1_">
	<path id="XMLID_4_" class="st0" d="M-595.4,391.9h-44.7c-4,0-7.2-3.2-7.2-7.2v0c0-4,3.2-7.2,7.2-7.2h44.7c4,0,7.2,3.2,7.2,7.2v0
		C-588.2,388.7-591.4,391.9-595.4,391.9z"/>
	<g id="XMLID_2_">
		<g id="XMLID_3_">
			<g>
				<g>
					<path class="st1" d="M-637.3,385.2v2.9h-1.2v-7h1.2v2.9h3.3v-2.9h1.2v7h-1.2v-2.9H-637.3z"/>
					<path class="st1" d="M-629.4,381.1v7h-1.2v-7H-629.4z"/>
					<path class="st1" d="M-622.8,388.1l-1.7-2.4h-1.5v2.4h-1.2v-7h3.1c1.6,0,2.6,0.8,2.6,2.2c0,1.2-0.7,1.9-1.7,2.1l1.9,2.6H-622.8
						z M-624.3,382.2h-1.8v2.3h1.8c0.9,0,1.4-0.5,1.4-1.2C-622.8,382.6-623.3,382.2-624.3,382.2z"/>
					<path class="st1" d="M-614.6,382.2h-4v1.8h3.5v1.1h-3.5v1.9h4v1.1h-5.2v-7h5.2V382.2z"/>
					<path class="st1" d="M-603.7,385.1c0,2.1-1.2,3.1-3,3.1c-1.8,0-3-1-3-3.1v-4h1.2v4c0,1.3,0.7,2,1.8,2c1.1,0,1.8-0.7,1.8-1.9v-4
						h1.2V385.1z"/>
					<path class="st1" d="M-599.1,384.1c1.5,0.4,2.2,0.9,2.2,2.1c0,1.3-1,2.1-2.5,2.1c-1.1,0-2.1-0.4-2.9-1.1l0.7-0.9
						c0.7,0.6,1.3,0.9,2.2,0.9c0.8,0,1.2-0.3,1.2-0.9c0-0.5-0.3-0.8-1.6-1.1c-1.5-0.4-2.3-0.8-2.3-2.1c0-1.2,1-2,2.4-2
						c1,0,1.8,0.3,2.5,0.9l-0.7,0.9c-0.6-0.5-1.3-0.7-1.9-0.7c-0.7,0-1.1,0.4-1.1,0.8C-600.8,383.5-600.5,383.7-599.1,384.1z"/>
				</g>
			</g>
		</g>
	</g>
</g>
</svg>
