<?xml version="1.0" encoding="utf-8"?>
<!-- Generator: Adobe Illustrator 23.0.6, SVG Export Plug-In . SVG Version: 6.00 Build 0)  -->
<svg version="1.1" id="Layer_1" xmlns="http://www.w3.org/2000/svg" xmlns:xlink="http://www.w3.org/1999/xlink" x="0px" y="0px"
	 viewBox="0 0 25 25" style="enable-background:new 0 0 25 25;" xml:space="preserve">
<path class="st0" d="M12.5,25C5.6,25,0,19.4,0,12.5S5.6,0,12.5,0C19.4,0,25,5.6,25,12.5S19.4,25,12.5,25z M12.5,1
	C6.2,1,1,6.2,1,12.5C1,18.8,6.2,24,12.5,24S24,18.8,24,12.5C24,6.2,18.8,1,12.5,1z"/>
<g id="XMLID_138_">
	<g>
		<path id="XMLID_55_" class="st0" d="M14.7,7.5h-4.5c-1.5,0-2.7,1.2-2.7,2.7v4.5c0,1.5,1.2,2.7,2.7,2.7h4.5c1.5,0,2.7-1.2,2.7-2.7
			v-4.5C17.5,8.7,16.3,7.5,14.7,7.5z M16.7,14.7c0,1.1-0.9,2-2,2h-4.4c-1.1,0-2-0.9-2-2v-4.4c0-1.1,0.9-2,2-2h4.4c1.1,0,2,0.9,2,2
			V14.7z"/>
		<path id="XMLID_52_" class="st0" d="M12.5,9.9c-1.5,0-2.6,1.2-2.6,2.6c0,1.5,1.2,2.6,2.6,2.6c1.5,0,2.6-1.2,2.6-2.6
			C15.1,11,14,9.9,12.5,9.9z M12.5,14.2c-0.9,0-1.7-0.8-1.7-1.7c0-0.9,0.8-1.7,1.7-1.7c0.9,0,1.7,0.8,1.7,1.7
			C14.2,13.4,13.4,14.2,12.5,14.2z"/>
		<path id="XMLID_51_" class="st0" d="M15.8,9.8c0,0.3-0.3,0.6-0.6,0.6c-0.3,0-0.6-0.3-0.6-0.6c0-0.3,0.3-0.6,0.6-0.6
			C15.5,9.2,15.8,9.5,15.8,9.8z"/>
	</g>
</g>
</svg>
