<?xml version="1.0" encoding="utf-8"?>
<!-- Generator: Adobe Illustrator 23.0.6, SVG Export Plug-In . SVG Version: 6.00 Build 0)  -->
<svg version="1.1" id="Layer_1" xmlns="http://www.w3.org/2000/svg" xmlns:xlink="http://www.w3.org/1999/xlink" x="0px" y="0px"
	 viewBox="0 0 59.1 14.4" style="enable-background:new 0 0 59.1 14.4;" xml:space="preserve">
<style type="text/css">
	.st1{fill:#FFFFFF;}
</style>
<path id="XMLID_4_" class="st0" d="M51.9,14.4H7.2c-4,0-7.2-3.2-7.2-7.2l0,0C0,3.2,3.2,0,7.2,0h44.7c4,0,7.2,3.2,7.2,7.2l0,0
	C59.1,11.2,55.9,14.4,51.9,14.4z"/>
<g>
	<path class="st1" d="M6.1,4.3h1v4.8h3v0.9h-4V4.3z"/>
	<path class="st1" d="M11.1,4.3h4.2v0.9h-3.2v1.5H15v0.9h-2.9v1.5h3.3v0.9h-4.3V4.3z"/>
	<path class="st1" d="M18,5.3h-1.8V4.3h4.6v0.9h-1.8v4.8h-1V5.3z"/>
	<path class="st1" d="M21.5,6.2c0.5-0.1,0.7-0.3,0.7-0.8h-0.4V4.3h1.1v1c0,0.9-0.4,1.3-1.3,1.4L21.5,6.2z"/>
	<path class="st1" d="M23.8,9.2l0.6-0.7c0.5,0.5,1.1,0.7,1.8,0.7c0.6,0,1-0.3,1-0.7v0c0-0.4-0.2-0.6-1.3-0.9C24.7,7.3,24,7,24,5.9v0
		c0-1,0.8-1.7,2-1.7c0.8,0,1.5,0.3,2.1,0.7l-0.5,0.8c-0.5-0.4-1-0.6-1.6-0.6c-0.6,0-0.9,0.3-0.9,0.7v0c0,0.4,0.3,0.6,1.4,0.9
		c1.2,0.3,1.8,0.7,1.8,1.7v0c0,1.1-0.8,1.7-2,1.7C25.3,10.1,24.4,9.8,23.8,9.2z"/>
	<path class="st1" d="M33.2,5.3h-1.8V4.3h4.6v0.9h-1.8v4.8h-1V5.3z"/>
	<path class="st1" d="M38.4,4.3h0.9l2.5,5.8h-1.1l-0.6-1.4h-2.7l-0.6,1.4h-1L38.4,4.3z M39.9,7.8l-1-2.3l-1,2.3H39.9z"/>
	<path class="st1" d="M42.9,4.3h1v4.8h3v0.9h-4V4.3z"/>
	<path class="st1" d="M47.9,4.3h1v2.9l2.7-2.9h1.2l-2.4,2.5l2.5,3.3h-1.2l-2-2.6L49,8.4v1.7h-1V4.3z"/>
</g>
</svg>
