<?xml version="1.0" encoding="utf-8"?>
<!-- Generator: Adobe Illustrator 23.0.6, SVG Export Plug-In . SVG Version: 6.00 Build 0)  -->
<svg version="1.1" id="Layer_1" xmlns="http://www.w3.org/2000/svg" xmlns:xlink="http://www.w3.org/1999/xlink" x="0px" y="0px"
	 viewBox="0 0 25 25" style="enable-background:new 0 0 25 25;" xml:space="preserve">
<path class="st0" d="M-654.5,395.1c-6.9,0-12.5-5.6-12.5-12.5s5.6-12.5,12.5-12.5s12.5,5.6,12.5,12.5S-647.6,395.1-654.5,395.1z
	 M-654.5,371.1c-6.3,0-11.5,5.2-11.5,11.5s5.2,11.5,11.5,11.5s11.5-5.2,11.5-11.5S-648.1,371.1-654.5,371.1z"/>
<g id="XMLID_132_">
	<g id="XMLID_133_">
		<path id="XMLID_145_" class="st0" d="M-649.9,383.7v3.4h-2v-3.2c0-0.8-0.3-1.4-1-1.4c-0.5,0-0.9,0.4-1,0.7
			c-0.1,0.1-0.1,0.3-0.1,0.5v3.3h-2c0,0,0-5.4,0-6h2v0.8l0,0l0,0l0,0c0.3-0.4,0.7-1,1.8-1C-650.9,381-649.9,381.8-649.9,383.7
			L-649.9,383.7z M-659.1,387.1h2v-6h-2V387.1z M-657,379.1c0,0.6-0.5,1-1,1s-1-0.5-1-1c0-0.6,0.5-1,1-1S-657,378.5-657,379.1z"/>
	</g>
</g>
<path class="st1" d="M12.5,25C5.6,25,0,19.4,0,12.5S5.6,0,12.5,0S25,5.6,25,12.5S19.4,25,12.5,25z M12.5,1C6.2,1,1,6.2,1,12.5
	S6.2,24,12.5,24S24,18.8,24,12.5C24,6.2,18.9,1,12.5,1z"/>
<g id="XMLID_49_">
	<g id="XMLID_50_">
		<path id="XMLID_51_" class="st1" d="M17.1,13.7v3.4h-2v-3.2c0-0.8-0.3-1.4-1-1.4c-0.5,0-0.9,0.4-1,0.7C13,13.3,13,13.5,13,13.7V17
			h-2c0,0,0-5.4,0-6h2v0.8l0,0l0,0l0,0c0.3-0.4,0.7-1,1.8-1C16.1,11,17.1,11.8,17.1,13.7L17.1,13.7z M7.9,17.1h2v-6h-2V17.1z
			 M10,9.1c0,0.6-0.5,1-1,1s-1-0.5-1-1c0-0.6,0.5-1,1-1S10,8.5,10,9.1z"/>
	</g>
</g>
</svg>
