<svg version="1.1" id="Layer_1" xmlns="http://www.w3.org/2000/svg" xmlns:xlink="http://www.w3.org/1999/xlink" x="0px" y="0px"
	 viewBox="0 0 250 100" style="enable-background:new 0 0 250 100;" xml:space="preserve">

<g id="XMLID_37_">
	<path id="XMLID_81_" class="st0" d="M111.7,37.3c0,8.3-6.7,15-15,15s-15-6.7-15-15s6.7-15,15-15S111.7,29,111.7,37.3z M96.7,7.3
		c-16.6,0-30.1,13.5-30.1,30.1s13.5,30.1,30.1,30.1s30.1-13.5,30.1-30.1S113.3,7.3,96.7,7.3z"/>
	<g id="XMLID_78_">
		<path id="XMLID_79_" class="st1" d="M201.9,37.3c0-8.3,6.7-15,15-15c8.3,0,15,6.7,15,15h15c0-16.6-13.5-30.1-30.1-30.1
			s-30.1,13.5-30.1,30.1H201.9z"/>
	</g>
	<path id="XMLID_76_" class="st1" d="M171.9,37.3c0,16.6,13.5,30.1,30.1,30.1S232,53.9,232,37.3h-15c0,8.3-6.7,15-15,15
		c-8.3,0-15-6.7-15-15H171.9z"/>
	<g id="XMLID_69_">
		<path id="XMLID_73_" class="st2" d="M239.5,65.8c-3.3,0-6-2.7-6-6c0-3.3,2.7-6,6-6c3.3,0,6,2.7,6,6
			C245.5,63.2,242.8,65.8,239.5,65.8z M239.5,52.4c-4.1,0-7.5,3.3-7.5,7.5s3.3,7.5,7.5,7.5s7.5-3.3,7.5-7.5S243.7,52.4,239.5,52.4z"
			/>
		<path id="XMLID_70_" class="st2" d="M239.8,60.5h-1.7V57h1.7C242.4,57,242.4,60.5,239.8,60.5z M239.6,56h-2.8v7.8h1.2v-2.3h2.1
			l1.3,2.3h1.3l-1.5-2.7C243.6,60,243.6,56,239.6,56z"/>
	</g>
	<path id="XMLID_67_" class="st3" d="M141.8,37.3c0-8.3,6.7-15,15-15c8.3,0,15,6.7,15,15h15c0-16.6-13.5-30.1-30.1-30.1
		s-30.1,13.5-30.1,30.1H141.8z"/>
	<circle id="XMLID_26_" class="st3" cx="156.8" cy="59.9" r="7.5"/>
	<path id="XMLID_25_" class="st4" d="M66.6,37.3c0,4.4-0.9,8.5-2.6,12.3c-4.7,10.5-15.2,17.8-27.4,17.8c-12.8,0-23.8-8-28.1-19.3
		c-0.7-1.7-1.2-3.5-1.5-5.4h15.5c2.2,5.7,7.6,9.7,14,9.7c6.1,0,11.4-3.7,13.7-8.9c0.8-1.9,1.3-3.9,1.3-6.1c0-1.9-0.3-3.7-1-5.4
		c-2.2-5.7-7.6-9.7-14-9.7c-6.1,0-11.4,3.6-13.7,8.9H7.2C7.6,29,8.3,27,9.1,25C13.8,14.6,24.4,7.3,36.6,7.3c12.8,0,23.8,8,28.1,19.3
		C65.9,29.9,66.6,33.5,66.6,37.3z"/>
	<g id="XMLID_93_">
		<path id="XMLID_94_" class="st2" d="M8.7,75.1l-0.8-0.6c0.9-1.4,1.9-2.2,3.6-2.2c1.8,0,3.1,1.2,3.1,2.9c0,1.5-0.8,2.4-2.6,3.9
			l-2.7,2.4h5.4v1H7.7v-0.9l3.7-3.2c1.5-1.4,2.1-2.2,2.1-3.2c0-1.2-0.9-1.9-2-1.9C10.3,73.4,9.5,74,8.7,75.1z"/>
		<path id="XMLID_96_" class="st2" d="M35,72.4v6.8h1.6v1H35v2.4h-1.1v-2.4h-5.3l-0.3-0.8l5.7-7H35z M33.9,74l-4.2,5.2h4.2V74z"/>
		<path id="XMLID_99_" class="st2" d="M54.3,82.6h-3.5V72.5h3.5c3.2,0,5.4,2.2,5.4,5C59.6,80.4,57.4,82.6,54.3,82.6z M54.3,73.6
			h-2.4v8h2.4c2.6,0,4.2-1.7,4.2-4S56.8,73.6,54.3,73.6z"/>
		<path id="XMLID_102_" class="st2" d="M78.7,82.8c-3.1,0-5.1-2.4-5.1-5.2c0-2.8,2.1-5.2,5.2-5.2c3.1,0,5.1,2.4,5.1,5.2
			C83.9,80.3,81.8,82.8,78.7,82.8z M78.7,73.4c-2.3,0-4,1.8-4,4.2s1.7,4.2,4,4.2s4-1.8,4-4.2S81,73.4,78.7,73.4z"/>
		<path id="XMLID_105_" class="st2" d="M102.1,82.6H101v-9.1h-3.4v-1.1h7.9v1.1h-3.4V82.6z"/>
		<path id="XMLID_107_" class="st2" d="M123.3,77c2.3,0.5,3.3,1.3,3.3,2.9c0,1.7-1.4,2.9-3.5,2.9c-1.6,0-2.9-0.5-4.1-1.6l0.7-0.8
			c1.1,1,2.1,1.4,3.5,1.4c1.4,0,2.3-0.7,2.3-1.7c0-1-0.5-1.5-2.6-1.9c-2.3-0.5-3.4-1.3-3.4-2.9c0-1.6,1.4-2.8,3.3-2.8
			c1.5,0,2.5,0.4,3.6,1.2l-0.7,0.9c-0.9-0.8-1.9-1.1-2.9-1.1c-1.3,0-2.2,0.7-2.2,1.6C120.6,76,121.1,76.5,123.3,77z"/>
	</g>
	<g id="XMLID_41_">
		<path id="XMLID_42_" class="st2" d="M10.5,92.8c-1.7,0-3-1.3-3-3.1c0-1.7,1.3-3.1,3-3.1c1.1,0,1.7,0.4,2.3,0.9l-0.5,0.5
			c-0.5-0.5-1.1-0.8-1.9-0.8c-1.3,0-2.3,1.1-2.3,2.4s1,2.5,2.3,2.5c0.8,0,1.3-0.3,1.9-0.9l0.4,0.4C12.3,92.4,11.6,92.8,10.5,92.8z"
			/>
		<path id="XMLID_44_" class="st2" d="M17,92.8c-1.8,0-3-1.4-3-3.1s1.2-3.1,3-3.1c1.8,0,3,1.4,3,3.1C20,91.4,18.8,92.8,17,92.8z
			 M17,87.3c-1.4,0-2.3,1.1-2.3,2.4s1,2.5,2.3,2.5s2.3-1.1,2.3-2.4S18.4,87.3,17,87.3z"/>
		<path id="XMLID_47_" class="st2" d="M26,86.8h0.7v5.9h-0.5l-3.8-4.9v4.9h-0.7v-5.9h0.6l3.7,4.7V86.8z"/>
		<path id="XMLID_49_" class="st2" d="M32.9,86.8h0.7v5.9H33l-3.8-4.9v4.9h-0.7v-5.9h0.6l3.7,4.7V86.8z"/>
		<path id="XMLID_51_" class="st2" d="M39.7,87.4h-3.6v2h3.2V90h-3.2v2.1h3.7v0.6h-4.3v-5.9h4.3V87.4z"/>
		<path id="XMLID_53_" class="st2" d="M44,92.8c-1.7,0-3-1.3-3-3.1c0-1.7,1.3-3.1,3-3.1c1.1,0,1.7,0.4,2.3,0.9l-0.5,0.5
			c-0.5-0.5-1.1-0.8-1.9-0.8c-1.3,0-2.3,1.1-2.3,2.4s1,2.5,2.3,2.5c0.8,0,1.3-0.3,1.9-0.9l0.4,0.4C45.7,92.4,45.1,92.8,44,92.8z"/>
		<path id="XMLID_55_" class="st2" d="M50,92.7h-0.7v-5.3h-2v-0.6h4.6v0.6h-2V92.7z"/>
		<path id="XMLID_57_" class="st2" d="M54.1,86.8v5.9h-0.7v-5.9H54.1z"/>
		<path id="XMLID_59_" class="st2" d="M60.4,86.8h0.7v5.9h-0.5l-3.8-4.9v4.9H56v-5.9h0.6l3.7,4.7V86.8z"/>
		<path id="XMLID_61_" class="st2" d="M65.7,92.8c-1.9,0-3-1.4-3-3.1c0-1.6,1.2-3.1,3-3.1c1,0,1.6,0.3,2.2,0.8L67.4,88
			c-0.5-0.4-1-0.7-1.8-0.7c-1.3,0-2.2,1.1-2.2,2.4c0,1.4,0.9,2.5,2.3,2.5c0.7,0,1.3-0.3,1.7-0.6v-1.5h-1.8v-0.6H68v2.4
			C67.5,92.4,66.7,92.8,65.7,92.8z"/>
		<path id="XMLID_63_" class="st2" d="M75.2,92.8c-1.7,0-3-1.3-3-3.1c0-1.7,1.3-3.1,3-3.1c1.1,0,1.7,0.4,2.3,0.9l-0.5,0.5
			c-0.5-0.5-1.1-0.8-1.9-0.8c-1.3,0-2.3,1.1-2.3,2.4s1,2.5,2.3,2.5c0.8,0,1.3-0.3,1.9-0.9l0.4,0.4C76.9,92.4,76.3,92.8,75.2,92.8z"
			/>
		<path id="XMLID_65_" class="st2" d="M83,92.7l-1.7-2.3h-1.7v2.3h-0.7v-5.9h2.5c1.3,0,2.1,0.7,2.1,1.8c0,1-0.7,1.6-1.6,1.7l1.8,2.4
			H83z M81.4,87.4h-1.8v2.4h1.8c0.9,0,1.5-0.5,1.5-1.2C82.9,87.8,82.4,87.4,81.4,87.4z"/>
		<path id="XMLID_71_" class="st2" d="M89.5,87.4h-3.6v2h3.2V90h-3.2v2.1h3.7v0.6h-4.3v-5.9h4.3V87.4z"/>
		<path id="XMLID_74_" class="st2" d="M96.6,92.7h-0.7l-0.7-1.6H92l-0.7,1.6h-0.7l2.7-6h0.6L96.6,92.7z M93.6,87.5l-1.4,3h2.7
			L93.6,87.5z"/>
		<path id="XMLID_80_" class="st2" d="M100.2,92.7h-0.7v-5.3h-2v-0.6h4.6v0.6h-2V92.7z"/>
		<path id="XMLID_83_" class="st2" d="M104.4,86.8v5.9h-0.7v-5.9H104.4z"/>
		<path id="XMLID_85_" class="st2" d="M110.8,86.8h0.7l-2.5,6h-0.6l-2.5-6h0.7l2.1,5.1L110.8,86.8z"/>
		<path id="XMLID_87_" class="st2" d="M113.6,86.8v5.9h-0.7v-5.9H113.6z"/>
		<path id="XMLID_89_" class="st2" d="M117.8,92.7h-0.7v-5.3h-2v-0.6h4.6v0.6h-2V92.7z"/>
		<path id="XMLID_91_" class="st2" d="M123.7,92.7H123v-2.3l-2.5-3.6h0.8l2,3l2-3h0.8l-2.5,3.6V92.7z"/>
	</g>
</g>
</svg>
